<?xml version="1.0" encoding="UTF-8" standalone="no"?>
<svg
   xmlns:dc="http://purl.org/dc/elements/1.1/"
   xmlns:cc="http://creativecommons.org/ns#"
   xmlns:rdf="http://www.w3.org/1999/02/22-rdf-syntax-ns#"
   xmlns:svg="http://www.w3.org/2000/svg"
   xmlns="http://www.w3.org/2000/svg"
   xmlns:sodipodi="http://sodipodi.sourceforge.net/DTD/sodipodi-0.dtd"
   xmlns:inkscape="http://www.inkscape.org/namespaces/inkscape"
   version="1.1"
   viewBox="0 0 604.45864 74.910644"
   height="74.910645"
   width="604.45862"
   data-name="logo epfl 2019"
   id="logo_epfl_2019"
   sodipodi:docname="epfl_enacit4r.svg"
   inkscape:version="0.92.5 (2060ec1f9f, 2020-04-08)"
   inkscape:export-filename="/home/sbancal/IT4R/WANH/graphics/epfl_enacit4r.png"
   inkscape:export-xdpi="120.46352"
   inkscape:export-ydpi="120.46352">
  <sodipodi:namedview
     pagecolor="#ffffff"
     bordercolor="#666666"
     borderopacity="1"
     objecttolerance="10"
     gridtolerance="10"
     guidetolerance="10"
     inkscape:pageopacity="0"
     inkscape:pageshadow="2"
     inkscape:window-width="3840"
     inkscape:window-height="2032"
     id="namedview15"
     showgrid="false"
     inkscape:zoom="2"
     inkscape:cx="264.476"
     inkscape:cy="-38.813309"
     inkscape:window-x="0"
     inkscape:window-y="774"
     inkscape:window-maximized="1"
     inkscape:current-layer="logo_epfl_2019"
     showguides="true"
     inkscape:guide-bbox="true"
     fit-margin-top="10"
     fit-margin-left="10"
     fit-margin-right="10"
     fit-margin-bottom="10" />
  <metadata
     id="metadata27">
    <rdf:RDF>
      <cc:Work
         rdf:about="">
        <dc:format>image/svg+xml</dc:format>
        <dc:type
           rdf:resource="http://purl.org/dc/dcmitype/StillImage" />
        <dc:title>epfl-logo-new</dc:title>
      </cc:Work>
    </rdf:RDF>
  </metadata>
  <defs
     id="defs4">
    <style
       id="style2">.cls-1{fill:red;}</style>
  </defs>
  <title
     id="title6">epfl-logo-new</title>
  <rect
     style="fill:#ffffff;stroke:none"
     id="rect989"
     width="673.5"
     height="233"
     x="-18.281631"
     y="-27.956774" />
  <path
     id="polygon8"
     d="m 11.12891,-352.65786 h 11.43 v -11.8 h 26.91 v -9.8 h -38.34 z"
     style="fill:#ff0000"
     inkscape:connector-curvature="0" />
  <path
     id="polygon10"
     d="m 11.12891,-321.25786 h 38.34 v -9.8 h -26.91 v -11.8 h -11.43 z"
     style="fill:#ff0000"
     inkscape:connector-curvature="0" />
  <path
     id="rect12"
     d="m 22.55891,-352.65786 h 24.61 v 9.8 h -24.61 z"
     style="fill:#ff0000"
     inkscape:connector-curvature="0" />
  <path
     style="fill:#ff0000"
     id="path14"
     d="m 97.12891,-369.38786 a 16.12,16.12 0 0 0 -5.68,-3.53 23.76,23.76 0 0 0 -8.5,-1.34 h -23.68 v 53 h 11.43 v -21.6 h 12.25 a 23.76,23.76 0 0 0 8.46,-1.34 16.12,16.12 0 0 0 5.72,-3.53 13.43,13.43 0 0 0 3.19,-5 17.38,17.38 0 0 0 0,-11.62 13.52,13.52 0 0 0 -3.19,-5.04 z m -8,13.86 a 5.7,5.7 0 0 1 -2.26,1.8 11.33,11.33 0 0 1 -3.27,0.85 32,32 0 0 1 -3.86,0.22 h -9.04 v -11.8 h 9.05 a 32,32 0 0 1 3.86,0.22 11,11 0 0 1 3.27,0.86 5.59,5.59 0 0 1 2.25,1.79 5,5 0 0 1 0.86,3 5,5 0 0 1 -0.86,3.06 z"
     class="cls-1"
     inkscape:connector-curvature="0" />
  <path
     id="polygon16"
     d="m 166.59891,-331.05786 v -43.2 h -11.43 v 53 h 38.34 v -9.8 z"
     style="fill:#ff0000"
     inkscape:connector-curvature="0" />
  <path
     id="polygon18"
     d="m 108.54891,-352.65786 h 11.43 v -11.8 h 26.91 v -9.8 h -38.34 z"
     style="fill:#ff0000"
     inkscape:connector-curvature="0" />
  <path
     id="rect20"
     d="m 108.5489,-342.85786 h 11.43001 v 21.6 H 108.5489 Z"
     style="fill:#ff0000"
     inkscape:connector-curvature="0" />
  <path
     id="rect22"
     d="m 119.97891,-352.65786 h 24.61 v 9.8 h -24.61 z"
     style="fill:#ff0000"
     inkscape:connector-curvature="0" />
  <text
     xml:space="preserve"
     style="font-size:38.92020035px;line-height:1.25;font-family:sans-serif;letter-spacing:0px;word-spacing:0px;stroke-width:1.45950758"
     x="203.19229"
     y="-357.9155"
     id="text4531"><tspan
       sodipodi:role="line"
       x="203.19229"
       y="-357.9155"
       style="font-style:normal;font-variant:normal;font-weight:bold;font-stretch:normal;fill:#ff0000;fill-opacity:1;stroke-width:1.45950758"
       id="tspan4537">ENAC</tspan><tspan
       sodipodi:role="line"
       x="203.19229"
       y="-309.26523"
       style="font-style:normal;font-variant:normal;font-weight:bold;font-stretch:normal;fill:#ff0000;fill-opacity:1;stroke-width:1.45950758"
       id="tspan4541">IT4RESEARCH</tspan></text>
  <path
     style="fill:#ff0000"
     d="m 9,-219.24636 h 11.43 v -11.8 h 26.91 v -9.8 H 9 Z"
     id="path4547"
     inkscape:connector-curvature="0" />
  <path
     style="fill:#ff0000"
     d="m 9,-187.84636 h 38.34 v -9.8 H 20.43 v -11.8 H 9 Z"
     id="path4549"
     inkscape:connector-curvature="0" />
  <path
     style="fill:#ff0000"
     d="m 20.43,-219.24636 h 24.61 v 9.8 H 20.43 Z"
     id="path4551"
     inkscape:connector-curvature="0" />
  <path
     class="cls-1"
     d="m 95,-235.97636 a 16.12,16.12 0 0 0 -5.68,-3.53 23.76,23.76 0 0 0 -8.5,-1.34 H 57.14 v 53 h 11.43 v -21.6 h 12.25 a 23.76,23.76 0 0 0 8.46,-1.34 16.12,16.12 0 0 0 5.72,-3.53 13.43,13.43 0 0 0 3.19,-5 17.38,17.38 0 0 0 0,-11.62 13.52,13.52 0 0 0 -3.19,-5.04 z m -8,13.86 a 5.7,5.7 0 0 1 -2.26,1.8 11.33,11.33 0 0 1 -3.27,0.85 32,32 0 0 1 -3.86,0.22 h -9.04 v -11.8 h 9.05 a 32,32 0 0 1 3.86,0.22 11,11 0 0 1 3.27,0.86 5.59,5.59 0 0 1 2.25,1.79 5,5 0 0 1 0.86,3 5,5 0 0 1 -0.86,3.06 z"
     id="path4553"
     style="fill:#ff0000"
     inkscape:connector-curvature="0" />
  <path
     style="fill:#ff0000"
     d="m 164.47,-197.64636 v -43.2 h -11.43 v 53 h 38.34 v -9.8 z"
     id="path4555"
     inkscape:connector-curvature="0" />
  <path
     style="fill:#ff0000"
     d="m 106.42,-219.24636 h 11.43 v -11.8 h 26.91 v -9.8 h -38.34 z"
     id="path4557"
     inkscape:connector-curvature="0" />
  <path
     style="fill:#ff0000"
     d="m 106.42,-209.44636 h 11.43 v 21.6 h -11.43 z"
     id="path4559"
     inkscape:connector-curvature="0" />
  <path
     style="fill:#ff0000"
     d="m 117.85,-219.24636 h 24.61 v 9.8 h -24.61 z"
     id="path4561"
     inkscape:connector-curvature="0" />
  <text
     id="text4567"
     y="-188.39748"
     x="201.06339"
     style="font-size:38.92020035px;line-height:1.25;font-family:sans-serif;letter-spacing:0px;word-spacing:0px;stroke-width:1.45950758"
     xml:space="preserve"><tspan
       id="tspan4565"
       style="font-style:normal;font-variant:normal;font-weight:bold;font-stretch:normal;fill:#ff0000;fill-opacity:1;stroke-width:1.45950758"
       y="-188.39748"
       x="201.06339"
       sodipodi:role="line">ENACIT4RESEARCH</tspan></text>
  <path
     inkscape:connector-curvature="0"
     id="path4626"
     d="m 6.5,-107.74636 h 11.43 v -11.8 h 26.91 v -9.8 H 6.5 Z"
     style="fill:#ff0000" />
  <path
     inkscape:connector-curvature="0"
     id="path4628"
     d="m 6.5,-76.346359 h 38.34 v -9.8 H 17.93 v -11.8 H 6.5 Z"
     style="fill:#ff0000" />
  <path
     inkscape:connector-curvature="0"
     id="path4630"
     d="m 17.93,-107.74636 h 24.61 v 9.800001 H 17.93 Z"
     style="fill:#ff0000" />
  <path
     inkscape:connector-curvature="0"
     style="fill:#ff0000"
     id="path4632"
     d="m 92.5,-124.47636 a 16.12,16.12 0 0 0 -5.68,-3.53 23.76,23.76 0 0 0 -8.5,-1.34 H 54.64 v 53.000001 h 11.43 v -21.6 h 12.25 a 23.76,23.76 0 0 0 8.46,-1.34 16.12,16.12 0 0 0 5.72,-3.530001 13.43,13.43 0 0 0 3.19,-5 17.38,17.38 0 0 0 0,-11.62 13.52,13.52 0 0 0 -3.19,-5.04 z m -8,13.86 a 5.7,5.7 0 0 1 -2.26,1.8 11.33,11.33 0 0 1 -3.27,0.85 32,32 0 0 1 -3.86,0.22 h -9.04 v -11.8 h 9.05 a 32,32 0 0 1 3.86,0.22 11,11 0 0 1 3.27,0.86 5.59,5.59 0 0 1 2.25,1.79 5,5 0 0 1 0.86,3 5,5 0 0 1 -0.86,3.06 z"
     class="cls-1" />
  <path
     inkscape:connector-curvature="0"
     id="path4634"
     d="m 161.97,-86.146359 v -43.200001 h -11.43 v 53.000001 h 38.34 v -9.8 z"
     style="fill:#ff0000" />
  <path
     inkscape:connector-curvature="0"
     id="path4636"
     d="m 103.92,-107.74636 h 11.43 v -11.8 h 26.91 v -9.8 h -38.34 z"
     style="fill:#ff0000" />
  <path
     inkscape:connector-curvature="0"
     id="path4638"
     d="m 103.92,-97.946359 h 11.43 v 21.6 h -11.43 z"
     style="fill:#ff0000" />
  <path
     inkscape:connector-curvature="0"
     id="path4640"
     d="m 115.35,-107.74636 h 24.61 v 9.800001 h -24.61 z"
     style="fill:#ff0000" />
  <text
     xml:space="preserve"
     style="font-size:38.92020035px;line-height:1.25;font-family:sans-serif;letter-spacing:0px;word-spacing:0px;stroke-width:1.45950758"
     x="198.56339"
     y="-88.678879"
     id="text4644"><tspan
       sodipodi:role="line"
       x="198.56339"
       y="-88.678879"
       style="font-style:normal;font-variant:normal;font-weight:bold;font-stretch:normal;fill:#ff0000;fill-opacity:1;stroke-width:1.45950758"
       id="tspan4642">ENACIT4RESEARCH</tspan></text>
  <text
     xml:space="preserve"
     style="font-size:26.66666603px;line-height:1.25;font-family:sans-serif;letter-spacing:0px;word-spacing:0px"
     x="-42.832031"
     y="47.021809"
     id="text4660"><tspan
       sodipodi:role="line"
       id="tspan4658"
       x="-42.832031"
       y="47.021809">1</tspan></text>
  <text
     xml:space="preserve"
     style="font-size:26.66666603px;line-height:1.25;font-family:sans-serif;letter-spacing:0px;word-spacing:0px"
     x="-42.239586"
     y="218.11206"
     id="text4664"><tspan
       sodipodi:role="line"
       id="tspan4662"
       x="-42.239586"
       y="218.11206">2</tspan></text>
  <text
     xml:space="preserve"
     style="font-size:26.66666603px;line-height:1.25;font-family:sans-serif;letter-spacing:0px;word-spacing:0px"
     x="-42.545574"
     y="388.83774"
     id="text4668"><tspan
       sodipodi:role="line"
       id="tspan4666"
       x="-42.545574"
       y="388.83774">3</tspan></text>
  <g
     id="g1029">
    <path
       style="fill:#ff0000"
       d="m 10,32.56878 h 11.43 v -11.8 h 26.91 v -9.8 H 10 Z"
       id="path4590"
       inkscape:connector-curvature="0" />
    <path
       style="fill:#ff0000"
       d="m 10,63.96878 h 38.34 v -9.8 H 21.43 v -11.8 H 10 Z"
       id="path4592"
       inkscape:connector-curvature="0" />
    <path
       style="fill:#ff0000"
       d="m 21.43,32.56878 h 24.61 v 9.8 H 21.43 Z"
       id="path4594"
       inkscape:connector-curvature="0" />
    <path
       class="cls-1"
       d="m 96,15.83878 a 16.12,16.12 0 0 0 -5.68,-3.53 23.76,23.76 0 0 0 -8.5,-1.34 H 58.14 v 53 h 11.43 v -21.6 h 12.25 a 23.76,23.76 0 0 0 8.46,-1.34 16.12,16.12 0 0 0 5.72,-3.53 13.43,13.43 0 0 0 3.19,-5 17.38,17.38 0 0 0 0,-11.62 13.52,13.52 0 0 0 -3.19,-5.04 z m -8,13.86 a 5.7,5.7 0 0 1 -2.26,1.8 11.33,11.33 0 0 1 -3.27,0.85 32,32 0 0 1 -3.86,0.22 h -9.04 v -11.8 h 9.05 a 32,32 0 0 1 3.86,0.22 11,11 0 0 1 3.27,0.86 5.59,5.59 0 0 1 2.25,1.79 5,5 0 0 1 0.86,3 5,5 0 0 1 -0.86,3.06 z"
       id="path4596"
       style="fill:#ff0000"
       inkscape:connector-curvature="0" />
    <path
       style="fill:#ff0000"
       d="m 165.47,54.16878 v -43.2 h -11.43 v 53 h 38.34 v -9.8 z"
       id="path4598"
       inkscape:connector-curvature="0" />
    <path
       style="fill:#ff0000"
       d="m 107.42,32.56878 h 11.43 v -11.8 h 26.91 v -9.8 h -38.34 z"
       id="path4600"
       inkscape:connector-curvature="0" />
    <path
       style="fill:#ff0000"
       d="m 107.42,42.36878 h 11.43 v 21.6 h -11.43 z"
       id="path4602"
       inkscape:connector-curvature="0" />
    <path
       style="fill:#ff0000"
       d="m 118.85,32.56878 h 24.61 v 9.8 h -24.61 z"
       id="path4604"
       inkscape:connector-curvature="0" />
    <text
       xml:space="preserve"
       style="font-size:73.11670685px;line-height:1.25;font-family:sans-serif;letter-spacing:0px;word-spacing:0px;stroke-width:2.74187684"
       x="209.57294"
       y="63.960129"
       id="text876"><tspan
         sodipodi:role="line"
         x="209.57294"
         y="63.960129"
         style="font-style:normal;font-variant:normal;font-weight:bold;font-stretch:normal;font-family:'Suisse Int\'l';-inkscape-font-specification:'Suisse Int\'l Bold';fill:#ff0000;fill-opacity:1;stroke-width:2.74187684"
         id="tspan874">ENAC-IT4R</tspan></text>
    <rect
       y="32.883347"
       x="214.4144"
       height="7.6776075"
       width="9.783227"
       id="rect866"
       style="fill:#ffffff;stroke:none;stroke-width:0.82751417" />
    <rect
       style="fill:#ffffff;stroke:none;stroke-width:0.88088977"
       id="rect868"
       width="9.314477"
       height="9.1378031"
       x="328.56161"
       y="43.996384" />
    <rect
       y="10.008257"
       x="474.7644"
       height="8.6940756"
       width="9.2885885"
       id="rect870"
       style="fill:#ffffff;stroke:none;stroke-width:0.85804093" />
    <rect
       style="fill:#ffffff;stroke:none;stroke-width:0.7731474"
       id="rect874"
       width="8.7026453"
       height="7.5340891"
       x="527.8465"
       y="43.996384" />
    <rect
       y="34.269089"
       x="550.70728"
       height="7.3934641"
       width="10.337835"
       id="rect882"
       style="fill:#ffffff;stroke:none;stroke-width:0.83475703" />
  </g>
  <g
     id="g1109"
     transform="translate(-5,-10)">
    <g
       id="g1090">
      <path
         style="fill:#ff0000"
         d="M 9.9999758,177.06878 H 21.429976 v -11.8 h 26.91 v -9.8 H 9.9999758 Z"
         id="path1031"
         inkscape:connector-curvature="0" />
      <path
         style="fill:#ff0000"
         d="M 9.9999758,208.46878 H 48.339976 v -9.8 h -26.91 v -11.8 H 9.9999758 Z"
         id="path1033"
         inkscape:connector-curvature="0" />
      <path
         style="fill:#ff0000"
         d="m 21.429976,177.06878 h 24.61 v 9.8 h -24.61 z"
         id="path1035"
         inkscape:connector-curvature="0" />
      <path
         class="cls-1"
         d="m 95.999976,160.33878 a 16.12,16.12 0 0 0 -5.68,-3.53 23.76,23.76 0 0 0 -8.5,-1.34 h -23.68 v 53 h 11.43 v -21.6 h 12.25 a 23.76,23.76 0 0 0 8.46,-1.34 16.12,16.12 0 0 0 5.72,-3.53 13.43,13.43 0 0 0 3.19,-5 17.38,17.38 0 0 0 0,-11.62 13.52,13.52 0 0 0 -3.19,-5.04 z m -8,13.86 a 5.7,5.7 0 0 1 -2.26,1.8 11.33,11.33 0 0 1 -3.27,0.85 32,32 0 0 1 -3.86,0.22 h -9.04 v -11.8 h 9.05 a 32,32 0 0 1 3.86,0.22 11,11 0 0 1 3.27,0.86 5.59,5.59 0 0 1 2.25,1.79 5,5 0 0 1 0.86,3 5,5 0 0 1 -0.86,3.06 z"
         id="path1037"
         style="fill:#ff0000"
         inkscape:connector-curvature="0" />
      <path
         style="fill:#ff0000"
         d="m 165.46998,198.66878 v -43.2 h -11.43 v 53 h 38.34 v -9.8 z"
         id="path1039"
         inkscape:connector-curvature="0" />
      <path
         style="fill:#ff0000"
         d="m 107.41998,177.06878 h 11.43 v -11.8 h 26.91 v -9.8 h -38.34 z"
         id="path1041"
         inkscape:connector-curvature="0" />
      <path
         style="fill:#ff0000"
         d="m 107.41998,186.86878 h 11.43 v 21.6 h -11.43 z"
         id="path1043"
         inkscape:connector-curvature="0" />
      <path
         style="fill:#ff0000"
         d="m 118.84998,177.06878 h 24.61 v 9.8 h -24.61 z"
         id="path1045"
         inkscape:connector-curvature="0" />
    </g>
    <g
       transform="translate(0.58954971)"
       id="g1080">
      <text
         xml:space="preserve"
         style="font-size:73.11670685px;line-height:1.25;font-family:sans-serif;letter-spacing:0px;word-spacing:0px;stroke-width:2.74187684"
         x="4.0729065"
         y="280.96011"
         id="text1049"><tspan
           sodipodi:role="line"
           x="4.0729065"
           y="280.96011"
           style="font-style:normal;font-variant:normal;font-weight:bold;font-stretch:normal;font-family:'Suisse Int\'l';-inkscape-font-specification:'Suisse Int\'l Bold';fill:#ff0000;fill-opacity:1;stroke-width:2.74187684"
           id="tspan1047">ENAC-IT4R</tspan></text>
    </g>
    <rect
       style="fill:#ffffff;stroke:none;stroke-width:0.82751417"
       id="rect1051"
       width="9.783227"
       height="7.6776075"
       x="8.9143677"
       y="249.88335" />
    <rect
       y="260.99637"
       x="123.06158"
       height="9.1378031"
       width="9.314477"
       id="rect1053"
       style="fill:#ffffff;stroke:none;stroke-width:0.88088977" />
    <rect
       style="fill:#ffffff;stroke:none;stroke-width:0.85804093"
       id="rect1055"
       width="9.2885885"
       height="8.6940756"
       x="269.26437"
       y="227.00826" />
    <rect
       y="260.99637"
       x="322.3465"
       height="7.5340891"
       width="8.7026453"
       id="rect1057"
       style="fill:#ffffff;stroke:none;stroke-width:0.7731474" />
    <rect
       style="fill:#ffffff;stroke:none;stroke-width:0.83475703"
       id="rect1059"
       width="10.337835"
       height="7.3934641"
       x="345.20728"
       y="251.26909" />
  </g>
  <g
     id="g1127"
     transform="translate(-4.5,176.5)">
    <path
       style="fill:#ff0000"
       d="M 9.9999758,177.06878 H 21.429976 v -11.8 h 26.91 v -9.8 H 9.9999758 Z"
       id="path1111"
       inkscape:connector-curvature="0" />
    <path
       style="fill:#ff0000"
       d="M 9.9999758,208.46878 H 48.339976 v -9.8 h -26.91 v -11.8 H 9.9999758 Z"
       id="path1113"
       inkscape:connector-curvature="0" />
    <path
       style="fill:#ff0000"
       d="m 21.429976,177.06878 h 24.61 v 9.8 h -24.61 z"
       id="path1115"
       inkscape:connector-curvature="0" />
    <path
       class="cls-1"
       d="m 95.999976,160.33878 a 16.12,16.12 0 0 0 -5.68,-3.53 23.76,23.76 0 0 0 -8.5,-1.34 h -23.68 v 53 h 11.43 v -21.6 h 12.25 a 23.76,23.76 0 0 0 8.46,-1.34 16.12,16.12 0 0 0 5.72,-3.53 13.43,13.43 0 0 0 3.19,-5 17.38,17.38 0 0 0 0,-11.62 13.52,13.52 0 0 0 -3.19,-5.04 z m -8,13.86 a 5.7,5.7 0 0 1 -2.26,1.8 11.33,11.33 0 0 1 -3.27,0.85 32,32 0 0 1 -3.86,0.22 h -9.04 v -11.8 h 9.05 a 32,32 0 0 1 3.86,0.22 11,11 0 0 1 3.27,0.86 5.59,5.59 0 0 1 2.25,1.79 5,5 0 0 1 0.86,3 5,5 0 0 1 -0.86,3.06 z"
       id="path1117"
       style="fill:#ff0000"
       inkscape:connector-curvature="0" />
    <path
       style="fill:#ff0000"
       d="m 165.46998,198.66878 v -43.2 h -11.43 v 53 h 38.34 v -9.8 z"
       id="path1119"
       inkscape:connector-curvature="0" />
    <path
       style="fill:#ff0000"
       d="m 107.41998,177.06878 h 11.43 v -11.8 h 26.91 v -9.8 h -38.34 z"
       id="path1121"
       inkscape:connector-curvature="0" />
    <path
       style="fill:#ff0000"
       d="m 107.41998,186.86878 h 11.43 v 21.6 h -11.43 z"
       id="path1123"
       inkscape:connector-curvature="0" />
    <path
       style="fill:#ff0000"
       d="m 118.84998,177.06878 h 24.61 v 9.8 h -24.61 z"
       id="path1125"
       inkscape:connector-curvature="0" />
  </g>
  <g
     id="g1176"
     transform="matrix(0.48262802,0,0,0.48262802,2.7072222,202.9642)">
    <g
       id="g1133"
       transform="translate(-3.9104503,176.5)">
      <text
         id="text1131"
         y="280.96011"
         x="4.0729065"
         style="font-size:73.11670685px;line-height:1.25;font-family:sans-serif;letter-spacing:0px;word-spacing:0px;stroke-width:2.74187684"
         xml:space="preserve"><tspan
           id="tspan1129"
           style="font-style:normal;font-variant:normal;font-weight:bold;font-stretch:normal;font-family:'Suisse Int\'l';-inkscape-font-specification:'Suisse Int\'l Bold';fill:#ff0000;fill-opacity:1;stroke-width:2.74187684"
           y="280.96011"
           x="4.0729065"
           sodipodi:role="line">ENAC-IT4R</tspan></text>
    </g>
    <rect
       y="426.38336"
       x="4.4143677"
       height="7.6776075"
       width="9.783227"
       id="rect1135"
       style="fill:#ffffff;stroke:none;stroke-width:0.82751417" />
    <rect
       style="fill:#ffffff;stroke:none;stroke-width:0.88088977"
       id="rect1137"
       width="9.314477"
       height="9.1378031"
       x="118.56158"
       y="437.49637" />
    <rect
       y="403.50824"
       x="264.76437"
       height="8.6940756"
       width="9.2885885"
       id="rect1139"
       style="fill:#ffffff;stroke:none;stroke-width:0.85804093" />
    <rect
       style="fill:#ffffff;stroke:none;stroke-width:0.7731474"
       id="rect1141"
       width="8.7026453"
       height="7.5340891"
       x="317.8465"
       y="437.49637" />
    <rect
       y="427.7691"
       x="340.70728"
       height="7.3934641"
       width="10.337835"
       id="rect1143"
       style="fill:#ffffff;stroke:none;stroke-width:0.83475703" />
  </g>
</svg>
