<?xml version="1.0" encoding="UTF-8" standalone="no"?>
<!-- Creator: CorelDRAW -->

<svg xmlns:dc="http://purl.org/dc/elements/1.1/" xmlns:cc="http://creativecommons.org/ns#"
  xmlns:rdf="http://www.w3.org/1999/02/22-rdf-syntax-ns#" xmlns:svg="http://www.w3.org/2000/svg"
  xmlns="http://www.w3.org/2000/svg" xmlns:sodipodi="http://sodipodi.sourceforge.net/DTD/sodipodi-0.dtd"
  xmlns:inkscape="http://www.inkscape.org/namespaces/inkscape" xml:space="preserve" width="527.04999mm"
  height="567.79584mm"
  style="clip-rule:evenodd;fill-rule:evenodd;image-rendering:optimizeQuality;shape-rendering:geometricPrecision;text-rendering:geometricPrecision"
  viewBox="0 0 527.04999 567.79584" version="1.1" id="svg4609" sodipodi:docname="tinyOpenBlocks.svg"
  inkscape:version="0.92.5 (2060ec1f9f, 2020-04-08)">
  <metadata id="metadata4613">
    <rdf:RDF>
      <cc:Work rdf:about="">
        <dc:format>image/svg+xml</dc:format>
        <dc:type rdf:resource="http://purl.org/dc/dcmitype/StillImage" />
        <dc:title></dc:title>
      </cc:Work>
    </rdf:RDF>
  </metadata>
  <sodipodi:namedview pagecolor="#ffffff" bordercolor="#666666" borderopacity="1" objecttolerance="10"
    gridtolerance="16" guidetolerance="16" inkscape:pageopacity="0" inkscape:pageshadow="2" inkscape:window-width="3696"
    inkscape:window-height="2032" id="namedview4611" showgrid="false" inkscape:zoom="0.5" inkscape:cx="195.67064"
    inkscape:cy="820.24072" inkscape:window-x="144" inkscape:window-y="774" inkscape:window-maximized="1"
    inkscape:current-layer="svg4609" showguides="true" inkscape:guide-bbox="true" fit-margin-top="0" fit-margin-left="0"
    fit-margin-right="0" fit-margin-bottom="0" />
  <defs id="defs4603">
    <style type="text/css" id="style4601">
      <![CDATA[
      .str0 {
        stroke: #1F1A17;
        stroke-width: 0.2
      }

      .fil0 {
        fill: #1F1A17
      }
      ]]>
    </style>
  </defs>

  <text xml:space="preserve"
    style="font-size:7.05555534px;line-height:1.25;font-family:sans-serif;letter-spacing:0px;word-spacing:0px;stroke-width:0.26458335"
    x="447.22107" y="105.17256" id="text2468">
    <tspan sodipodi:role="line" id="tspan2466" x="447.22107" y="105.17256" style="stroke-width:0.26458335">existing
    </tspan>
  </text>
  <text xml:space="preserve"
    style="font-size:7.05555534px;line-height:1.25;font-family:sans-serif;letter-spacing:0px;word-spacing:0px;stroke-width:0.26458335"
    x="439.85489" y="279.66705" id="text2472">
    <tspan sodipodi:role="line" id="tspan2470" x="439.85489" y="279.66705" style="stroke-width:0.26458335">conservative
    </tspan>
  </text>
  <text xml:space="preserve"
    style="font-size:7.05555534px;line-height:1.25;font-family:sans-serif;letter-spacing:0px;word-spacing:0px;stroke-width:0.26458335"
    x="454.73898" y="452.24982" id="text2476">
    <tspan sodipodi:role="line" id="tspan2474" x="454.73898" y="452.24982" style="stroke-width:0.26458335">radical
    </tspan>
  </text>
  <path inkscape:connector-curvature="0" id="path2482"
    d="M 185.78798,285.58184 A 66.145836,66.145836 0 0 1 119.64214,351.72767 66.145836,66.145836 0 0 1 53.496302,285.58184 66.145836,66.145836 0 0 1 119.64214,219.436 66.145836,66.145836 0 0 1 185.78798,285.58184 Z"
    style="fill:none;fill-opacity:1;stroke:#000000;stroke-width:26.45833397;stroke-miterlimit:4;stroke-dasharray:26.4583335, 26.4583335;stroke-dashoffset:0;stroke-opacity:1" />
  <path
    style="fill:none;fill-opacity:1;stroke:#000000;stroke-width:13.22916698;stroke-miterlimit:4;stroke-dasharray:none;stroke-opacity:1"
    d="M 188.07844,103.75077 A 66.145836,66.145836 0 0 1 121.9326,169.89661 66.145836,66.145836 0 0 1 55.786762,103.75077 66.145836,66.145836 0 0 1 121.9326,37.604931 66.145836,66.145836 0 0 1 188.07844,103.75077 Z"
    id="path2484" inkscape:connector-curvature="0" />
  <path
    style="fill:none;fill-opacity:1;stroke:#000000;stroke-width:31.75;stroke-miterlimit:4;stroke-dasharray:none;stroke-dashoffset:0;stroke-opacity:1"
    d="m 185.78798,454.33582 a 66.145836,66.145836 0 0 1 -66.14584,66.14583 66.145836,66.145836 0 0 1 -66.145838,-66.14583 66.145836,66.145836 0 0 1 66.145838,-66.14584 66.145836,66.145836 0 0 1 66.14584,66.14584 z"
    id="path2486" inkscape:connector-curvature="0" />
  <path
    style="color:#000000;font-style:normal;font-variant:normal;font-weight:normal;font-stretch:normal;font-size:medium;line-height:normal;font-family:sans-serif;font-variant-ligatures:normal;font-variant-position:normal;font-variant-caps:normal;font-variant-numeric:normal;font-variant-alternates:normal;font-feature-settings:normal;text-indent:0;text-align:start;text-decoration:none;text-decoration-line:none;text-decoration-style:solid;text-decoration-color:#000000;letter-spacing:normal;word-spacing:normal;text-transform:none;writing-mode:lr-tb;direction:ltr;text-orientation:mixed;dominant-baseline:auto;baseline-shift:baseline;text-anchor:start;white-space:normal;shape-padding:0;clip-rule:nonzero;display:inline;overflow:visible;visibility:visible;opacity:1;isolation:auto;mix-blend-mode:normal;color-interpolation:sRGB;color-interpolation-filters:linearRGB;solid-color:#000000;solid-opacity:1;vector-effect:none;fill:#000000;fill-opacity:1;fill-rule:nonzero;stroke:none;stroke-width:26.45833397;stroke-linecap:butt;stroke-linejoin:miter;stroke-miterlimit:4;stroke-dasharray:26.4583335, 26.4583335;stroke-dashoffset:0;stroke-opacity:1;color-rendering:auto;image-rendering:auto;shape-rendering:auto;text-rendering:auto;enable-background:accumulate"
    d="m 337.11967,209.67538 -2.24609,26.36328 c 6.99951,0.59633 13.92979,2.63597 20.11914,5.92774 l 12.42382,-23.35938 c -9.38798,-4.99293 -19.71863,-8.03042 -30.29687,-8.93164 z m -31.30469,3.54297 c -10.11628,3.26457 -19.47816,8.56231 -27.49023,15.50391 l 17.32617,19.99609 c 5.32051,-4.60966 11.6169,-8.16655 18.29102,-10.32031 z m 85.94727,25.36914 -20.48243,16.74805 c 4.45118,5.44377 7.82059,11.84107 9.7793,18.57617 l 25.40625,-7.38867 c -2.96785,-10.20507 -7.98798,-19.72295 -14.70312,-27.93555 z m -132.71094,15.05273 c -4.72077,9.53352 -7.44814,19.94727 -8.04492,30.53907 l 26.41601,1.48828 c 0.39561,-7.02125 2.23105,-14.00895 5.33985,-20.28711 z m 150.57422,35.10352 -26.45899,0.0254 c 0.007,7.04687 -1.41631,14.13425 -4.15234,20.58203 l 24.35547,10.33398 c 4.15673,-9.79582 6.26562,-20.34704 6.25586,-30.9414 z m -129.24024,17.77344 -24.93359,8.85351 c 3.55705,10.01591 9.12417,19.22199 16.29492,27.0293 l 19.48633,-17.89844 c -4.76127,-5.18394 -8.50069,-11.3758 -10.84766,-17.98437 z m 86.72852,20.20117 c -5.04759,4.91032 -11.12957,8.83002 -17.66797,11.36914 l 9.57812,24.66406 c 9.90694,-3.84725 18.94305,-9.67892 26.53907,-17.06836 z m -58.85547,10.18554 -11.04687,24.04102 c 9.66989,4.44331 20.15992,6.86223 30.75781,7.1543 l 0.72851,-26.44922 c -7.03576,-0.1939 -14.07684,-1.82248 -20.43945,-4.7461 z"
    id="path2500" inkscape:connector-curvature="0">
    <title id="title2514">conservative</title>
  </path>
  <path
    style="color:#000000;font-style:normal;font-variant:normal;font-weight:normal;font-stretch:normal;font-size:medium;line-height:normal;font-family:sans-serif;font-variant-ligatures:normal;font-variant-position:normal;font-variant-caps:normal;font-variant-numeric:normal;font-variant-alternates:normal;font-feature-settings:normal;text-indent:0;text-align:start;text-decoration:none;text-decoration-line:none;text-decoration-style:solid;text-decoration-color:#000000;letter-spacing:normal;word-spacing:normal;text-transform:none;writing-mode:lr-tb;direction:ltr;text-orientation:mixed;dominant-baseline:auto;baseline-shift:baseline;text-anchor:start;white-space:normal;shape-padding:0;clip-rule:nonzero;display:inline;overflow:visible;visibility:visible;opacity:1;isolation:auto;mix-blend-mode:normal;color-interpolation:sRGB;color-interpolation-filters:linearRGB;solid-color:#000000;solid-opacity:1;vector-effect:none;fill:#000000;fill-opacity:1;fill-rule:nonzero;stroke:none;stroke-width:13.22916698;stroke-linecap:butt;stroke-linejoin:miter;stroke-miterlimit:4;stroke-dasharray:none;stroke-dashoffset:0;stroke-opacity:1;color-rendering:auto;image-rendering:auto;shape-rendering:auto;text-rendering:auto;enable-background:accumulate"
    d="m 332.54154,34.165611 c -40.10612,0 -72.76172,32.65364 -72.76171,72.759769 -1e-5,40.10613 32.65559,72.76172 72.76171,72.76172 40.10613,0 72.75977,-32.6556 72.75977,-72.76172 0,-40.106119 -32.65364,-72.759769 -72.75977,-72.759769 z m 0,13.22852 c 32.95655,0 59.53126,26.5747 59.53125,59.531249 0,32.95655 -26.5747,59.53125 -59.53125,59.53125 -32.95655,0 -59.53125,-26.5747 -59.53125,-59.53125 0,-32.956549 26.5747,-59.531249 59.53125,-59.531249 z"
    id="path2502" inkscape:connector-curvature="0">
    <title id="title2512">existing</title>
  </path>
  <path
    style="color:#000000;font-style:normal;font-variant:normal;font-weight:normal;font-stretch:normal;font-size:medium;line-height:normal;font-family:sans-serif;font-variant-ligatures:normal;font-variant-position:normal;font-variant-caps:normal;font-variant-numeric:normal;font-variant-alternates:normal;font-feature-settings:normal;text-indent:0;text-align:start;text-decoration:none;text-decoration-line:none;text-decoration-style:solid;text-decoration-color:#000000;letter-spacing:normal;word-spacing:normal;text-transform:none;writing-mode:lr-tb;direction:ltr;text-orientation:mixed;dominant-baseline:auto;baseline-shift:baseline;text-anchor:start;white-space:normal;shape-padding:0;clip-rule:nonzero;display:inline;overflow:visible;visibility:visible;opacity:1;isolation:auto;mix-blend-mode:normal;color-interpolation:sRGB;color-interpolation-filters:linearRGB;solid-color:#000000;solid-opacity:1;vector-effect:none;fill:#000000;fill-opacity:1;fill-rule:nonzero;stroke:none;stroke-width:31.75;stroke-linecap:butt;stroke-linejoin:miter;stroke-miterlimit:4;stroke-dasharray:none;stroke-dashoffset:0;stroke-opacity:1;color-rendering:auto;image-rendering:auto;shape-rendering:auto;text-rendering:auto;enable-background:accumulate"
    d="m 330.25053,375.48983 c -45.11083,0 -82.02149,36.91066 -82.02149,82.02149 1e-5,45.11082 36.91067,82.01953 82.02149,82.01953 45.11082,0 82.02148,-36.90871 82.02148,-82.01953 0,-45.11083 -36.91066,-82.02149 -82.02148,-82.02149 z m 0,31.75 c 27.95185,0 50.27148,22.31964 50.27148,50.27149 0,27.95184 -22.31964,50.26953 -50.27148,50.26953 -27.95185,0 -50.27148,-22.31768 -50.27149,-50.26953 0,-27.95186 22.31964,-50.27149 50.27149,-50.27149 z"
    id="path2504" inkscape:connector-curvature="0">
    <title id="title2516">radical</title>
  </path>
</svg>
